<svg width="304" height="359" viewBox="0 0 304 359" fill="none" xmlns="http://www.w3.org/2000/svg">
<g filter="url(#filter0_d)">
<path d="M78 24H25C36.4312 40.4172 45.1111 51.5506 51.502 69M78 24C109.795 69.6637 120.305 120.869 119.477 169C118.346 234.704 96.0852 294.677 78 327H25C43.0852 294.677 65.3459 234.704 66.4769 169M78 24H276V69H51.502M66.4769 169C66.7259 154.533 65.9506 139.788 63.8807 125M66.4769 169H276V125H63.8807M51.502 69C57.544 85.4971 61.5401 108.277 63.8807 125" stroke="#FF0000" stroke-width="48" stroke-linejoin="bevel"/>
<path d="M78 24H25C36.4312 40.4172 45.1111 51.5506 51.502 69M78 24C109.795 69.6637 120.305 120.869 119.477 169C118.346 234.704 96.0852 294.677 78 327H25C43.0852 294.677 65.3459 234.704 66.4769 169M78 24H276V69H51.502M66.4769 169C66.7259 154.533 65.9506 139.788 63.8807 125M66.4769 169H276V125H63.8807M51.502 69C57.544 85.4971 61.5401 108.277 63.8807 125" stroke="url(#paint0_linear)" stroke-opacity="0.5" stroke-width="48" stroke-linejoin="bevel"/>
</g>
<defs>
<filter id="filter0_d" x="0.055603" y="0" width="303.944" height="359" filterUnits="userSpaceOnUse" color-interpolation-filters="sRGB">
<feFlood flood-opacity="0" result="BackgroundImageFix"/>
<feColorMatrix in="SourceAlpha" type="matrix" values="0 0 0 0 0 0 0 0 0 0 0 0 0 0 0 0 0 0 127 0"/>
<feOffset dy="4"/>
<feGaussianBlur stdDeviation="2"/>
<feColorMatrix type="matrix" values="0 0 0 0 0 0 0 0 0 0 0 0 0 0 0 0 0 0 0.25 0"/>
<feBlend mode="normal" in2="BackgroundImageFix" result="effect1_dropShadow"/>
<feBlend mode="normal" in="SourceGraphic" in2="effect1_dropShadow" result="shape"/>
</filter>
<linearGradient id="paint0_linear" x1="150.5" y1="24" x2="150.5" y2="327" gradientUnits="userSpaceOnUse">
<stop stop-color="#FF0000"/>
<stop offset="0.526042" stop-color="white"/>
<stop offset="1" stop-color="#FF0000"/>
</linearGradient>
</defs>
</svg>
